<svg xmlns="http://www.w3.org/2000/svg" width="47" height="45" fill="none"><path fill="#FF715B" d="M38.075 5.761A18.243 18.243 0 0 0 24.75 0C16.122 0 8.89 5.977 6.958 14.02l2.467-.684c.108-.03.22.024.264.126a.223.223 0 0 1-.087.28 47.98 47.98 0 0 0-5.667 4.114c-6.26 5.441-5.202 10.969 4.263 7.204 6.07-2.282 3.851-4.318 3.065-5.215a.332.332 0 0 1-.084-.253.333.333 0 0 1 .121-.237c.544-.46 1.894.01 2.64.194 1.097.27 2.192.57 3.28.872a.334.334 0 0 0 .292-.05l5.98-4.24a.333.333 0 0 0 .145-.258.334.334 0 0 0-.11-.275c-.877-.814-3.367-2.928-3.816-3.31-.223-.19-.982-.824-1.786-1.51-.815-.694-1.676-1.442-2.076-1.836a.335.335 0 0 1-.101-.276.335.335 0 0 1 .148-.254c1.117-.766 3.58.595 4.488 1.025.196.092.392.186.587.281.766.37 1.533.756 2.303 1.146a.336.336 0 0 0 .328-.008l.56-.324a.571.571 0 0 1 .78.776.335.335 0 0 0-.03.27.333.333 0 0 0 .174.208c.661.335 1.324.667 1.988.99.208.101.59.351.867.423.11.028.217.005.305-.067 1.71-1.4 5.087-3.493 7.294-3.823 1.227-.183 2.468-.057 2.845.685a.321.321 0 0 0 .018.032c.453.697-.058 1.835-.83 2.807-1.39 1.749-4.888 3.628-6.955 4.41a.335.335 0 0 0-.21.232c-.076.275-.051.731-.068.963-.053.737-.097 1.477-.138 2.218a.334.334 0 0 0 .093.255c.067.071.15.108.249.109a.571.571 0 0 1 .282 1.063l-.56.324a.336.336 0 0 0-.172.28c-.059 1.082-.123 2.16-.21 3.218-.081 1.002-.135 3.818-1.357 4.402a.333.333 0 0 1-.293.002.334.334 0 0 1-.188-.226c-.281-1.083-.858-4.44-.964-5.02-.107-.581-.69-3.796-.956-4.962a.334.334 0 0 0-.184-.233.334.334 0 0 0-.296-.004l-6.66 3.064a.335.335 0 0 0-.189.227 120.76 120.76 0 0 1-.885 3.279c-.215.743-.35 2.387-1.027 2.617-.175.06-.365-.055-.433-.227-1.903-4.862-6.165.732-4.665 2.366.602.656 1.211 1.312 1.825 1.97 3.65 3.908 7.475 7.847 10.872 11.713a.345.345 0 0 0 .532.002c5.233-5.897 14.861-14.276 17.405-22.603.709-2.319.935-5.416.264-7.764-.235-.819-4.738 1.604-4.506 1.075.273-.622 8.982-4.339 8.819-8.43-.09-2.225-3.461-3.24-8.923-1.392Z"/></svg>